<?xml version="1.0" encoding="UTF-8" standalone="no"?>
<!-- Created with Inkscape (http://www.inkscape.org/) -->

<svg
   width="512"
   height="512"
   viewBox="0 0 135.46666 135.46666"
   version="1.1"
   id="svg5"
   inkscape:version="1.3.2 (091e20ef0f, 2023-11-25, custom)"
   sodipodi:docname="lock_light.svg"
   xmlns:inkscape="http://www.inkscape.org/namespaces/inkscape"
   xmlns:sodipodi="http://sodipodi.sourceforge.net/DTD/sodipodi-0.dtd"
   xmlns="http://www.w3.org/2000/svg"
   xmlns:svg="http://www.w3.org/2000/svg">
  <sodipodi:namedview
     id="namedview7"
     pagecolor="#505050"
     bordercolor="#eeeeee"
     borderopacity="1"
     inkscape:showpageshadow="0"
     inkscape:pageopacity="0"
     inkscape:pagecheckerboard="0"
     inkscape:deskcolor="#505050"
     inkscape:document-units="mm"
     showgrid="false"
     inkscape:zoom="0.53274184"
     inkscape:cx="223.37273"
     inkscape:cy="281.56227"
     inkscape:window-width="1908"
     inkscape:window-height="1014"
     inkscape:window-x="0"
     inkscape:window-y="0"
     inkscape:window-maximized="1"
     inkscape:current-layer="layer1" />
  <defs
     id="defs2" />
  <g
     inkscape:label="Layer 1"
     inkscape:groupmode="layer"
     id="layer1">
    <path
       style="font-size:172.349px;font-family:Righteous;-inkscape-font-specification:Righteous;text-align:center;text-anchor:middle;fill:#FF79C6;stroke-width:0.912702;fill-opacity:1"
       d="M 43.173605,61.528773 H 92.293069 V 43.08743 q 0,-10.168591 -7.238657,-17.407249 -7.238658,-7.238658 -17.407249,-7.238658 -10.168591,0 -17.407249,7.238658 -7.066309,7.238658 -7.066309,17.407249 z m 79.969935,9.306846 v 55.324031 q 0,3.79168 -2.75758,6.54926 -2.58524,2.75758 -6.54927,2.75758 H 21.62998 q -3.791678,0 -6.549262,-2.75758 -2.757584,-2.75758 -2.757584,-6.54926 V 70.835619 q 0,-3.964027 2.757584,-6.549262 2.757584,-2.757584 6.549262,-2.757584 h 2.929933 V 43.08743 q 0,-17.751947 12.581477,-30.333424 Q 49.895216,1.8017578e-4 67.647163,1.8017578e-4 q 17.751947,0 30.333423,12.75382582422 12.753824,12.581477 12.753824,30.333424 v 18.441343 h 3.10228 q 3.96403,0 6.54927,2.757584 2.75758,2.585235 2.75758,6.549262 z"
       id="text236"
       aria-label="" />
  </g>
</svg>
