<?xml version="1.0" encoding="UTF-8" standalone="no"?>
<!-- Created with Inkscape (http://www.inkscape.org/) -->

<svg
   width="512"
   height="512"
   viewBox="0 0 135.46666 135.46666"
   version="1.1"
   id="svg5"
   inkscape:version="1.3.2 (091e20ef0f, 2023-11-25, custom)"
   sodipodi:docname="logout_light.svg"
   xmlns:inkscape="http://www.inkscape.org/namespaces/inkscape"
   xmlns:sodipodi="http://sodipodi.sourceforge.net/DTD/sodipodi-0.dtd"
   xmlns="http://www.w3.org/2000/svg"
   xmlns:svg="http://www.w3.org/2000/svg">
  <sodipodi:namedview
     id="namedview7"
     pagecolor="#505050"
     bordercolor="#eeeeee"
     borderopacity="1"
     inkscape:showpageshadow="0"
     inkscape:pageopacity="0"
     inkscape:pagecheckerboard="0"
     inkscape:deskcolor="#505050"
     inkscape:document-units="mm"
     showgrid="false"
     inkscape:zoom="0.43581648"
     inkscape:cx="55.069051"
     inkscape:cy="165.20715"
     inkscape:window-width="1908"
     inkscape:window-height="1014"
     inkscape:window-x="0"
     inkscape:window-y="0"
     inkscape:window-maximized="1"
     inkscape:current-layer="layer1" />
  <defs
     id="defs2" />
  <g
     inkscape:label="Layer 1"
     inkscape:groupmode="layer"
     id="layer1">
    <path
       d="m 99.747991,28.045728 32.543829,32.543829 c 1.85209,1.852088 3.17501,4.497927 3.17501,7.143767 0,2.910424 -1.32292,5.556264 -3.17501,7.408351 L 99.747991,107.6855 c -1.587504,1.58751 -3.96876,2.38126 -6.350016,2.38126 -4.762511,0 -8.731271,-3.96876 -8.731271,-8.73127 V 84.666698 H 50.799955 c -4.762511,0 -8.466687,-3.704175 -8.466687,-8.466687 V 59.266637 c 0,-4.497928 3.704176,-8.466687 8.466687,-8.466687 H 84.666704 V 34.395743 c 0,-4.762511 3.96876,-8.995855 8.731271,-8.995855 2.381256,0 4.762512,1.058336 6.350016,2.64584 z M 42.333268,25.399888 H 25.399894 c -4.762512,0 -8.466687,3.96876 -8.466687,8.466687 v 67.733495 c 0,4.76251 3.704175,8.46669 8.466687,8.46669 h 16.933374 c 4.497928,0 8.466687,3.96876 8.466687,8.46669 0,4.76251 -3.968759,8.46668 -8.466687,8.46668 H 25.399894 c -14.022951,0 -25.40006184668,-11.37711 -25.40006184668,-25.40006 V 33.866575 C -1.6784668e-4,19.843625 11.376943,8.4665136 25.399894,8.4665136 h 16.933374 c 4.497928,0 8.466687,3.9687594 8.466687,8.4666874 0,4.762511 -3.968759,8.466687 -8.466687,8.466687 z"
       id="text1319"
       style="font-size:135.467px;font-family:Righteous;-inkscape-font-specification:Righteous;text-align:center;text-anchor:middle;fill:#FF79C6;stroke-width:0.211021;fill-opacity:1"
       aria-label="" />
  </g>
</svg>
