<?xml version="1.0" encoding="UTF-8" standalone="no"?>
<!-- Created with Inkscape (http://www.inkscape.org/) -->

<svg
   width="512"
   height="512"
   viewBox="0 0 135.46666 135.46666"
   version="1.1"
   id="svg5"
   inkscape:version="1.3.2 (091e20ef0f, 2023-11-25, custom)"
   sodipodi:docname="restart_light.svg"
   xmlns:inkscape="http://www.inkscape.org/namespaces/inkscape"
   xmlns:sodipodi="http://sodipodi.sourceforge.net/DTD/sodipodi-0.dtd"
   xmlns="http://www.w3.org/2000/svg"
   xmlns:svg="http://www.w3.org/2000/svg">
  <sodipodi:namedview
     id="namedview7"
     pagecolor="#505050"
     bordercolor="#eeeeee"
     borderopacity="1"
     inkscape:showpageshadow="0"
     inkscape:pageopacity="0"
     inkscape:pagecheckerboard="0"
     inkscape:deskcolor="#505050"
     inkscape:document-units="mm"
     showgrid="false"
     inkscape:zoom="0.48603511"
     inkscape:cx="185.17181"
     inkscape:cy="277.75771"
     inkscape:window-width="1908"
     inkscape:window-height="1014"
     inkscape:window-x="0"
     inkscape:window-y="0"
     inkscape:window-maximized="1"
     inkscape:current-layer="layer1" />
  <defs
     id="defs2" />
  <g
     inkscape:label="Layer 1"
     inkscape:groupmode="layer"
     id="layer1">
    <path
       style="font-size:144.498px;font-family:Righteous;-inkscape-font-specification:Righteous;text-align:center;text-anchor:middle;fill:#d8adb1;stroke-width:0.849643;fill-opacity:1"
       d="M 35.559954,35.701058 C 53.339982,18.203253 81.562248,18.203253 99.342275,35.418835 L 87.771146,46.989964 c -1.975558,1.975559 -2.540004,5.080008 -1.693336,7.620012 1.128891,2.540004 3.668895,3.951117 6.491121,3.951117 h 33.584499 c 0,0 0,0 0,0 h 2.54 c 3.6689,0 6.77335,-2.822226 6.77335,-6.773343 V 15.663249 c 0,-2.540004 -1.69334,-5.080008 -4.23334,-6.2088982 -2.54001,-0.846668 -5.64446,-0.2822227 -7.33779,1.4111132 L 112.04229,22.718816 C 87.206701,-1.5523329 47.413306,-1.5523329 22.859935,23.001038 16.086591,29.774382 11.006583,37.958839 7.9021338,46.707742 c -1.6933359,4.797785 0.846668,9.877793 5.6444532,11.571129 4.515563,1.693336 9.877793,-0.846668 11.571129,-5.644453 1.975559,-6.208899 5.644453,-11.853352 10.442238,-16.93336 z M -1.0061264e-4,83.396687 v 2.257782 0.282222 33.584499 c 0,2.82222 1.41111331264,5.36223 3.95111721264,6.49112 2.5400039,0.84667 5.6444532,0.28222 7.6200114,-1.69334 l 11.571129,-11.57113 c 24.835594,24.27115 64.628989,24.27115 89.182363,-0.28222 6.77334,-7.05557 11.85335,-14.9578 14.9578,-23.706702 1.69333,-4.797785 -0.84667,-9.877793 -5.64445,-11.571129 -4.51557,-1.693336 -9.8778,0.846668 -11.28891,5.644453 -2.25778,6.208898 -5.92668,11.853352 -10.724462,16.933359 C 82.126693,117.26341 53.622204,117.26341 35.842177,100.04782 L 47.695529,88.194472 c 1.693336,-1.693335 2.257781,-4.797785 1.411113,-7.337789 -1.128891,-2.540004 -3.668895,-4.23334 -6.208899,-4.23334 H 9.0310245 8.7488018 6.7732432 c -3.9511172,0 -6.77334381264,3.10445 -6.77334381264,6.773344 z"
       id="text236"
       aria-label="" />
  </g>
</svg>
