<?xml version="1.0" encoding="UTF-8" standalone="no"?>
<!-- Created with Inkscape (http://www.inkscape.org/) -->

<svg
   width="512"
   height="512"
   viewBox="0 0 135.46666 135.46666"
   version="1.1"
   id="svg5"
   inkscape:version="1.3.2 (091e20ef0f, 2023-11-25, custom)"
   sodipodi:docname="sleep_light.svg"
   xmlns:inkscape="http://www.inkscape.org/namespaces/inkscape"
   xmlns:sodipodi="http://sodipodi.sourceforge.net/DTD/sodipodi-0.dtd"
   xmlns="http://www.w3.org/2000/svg"
   xmlns:svg="http://www.w3.org/2000/svg">
  <sodipodi:namedview
     id="namedview7"
     pagecolor="#505050"
     bordercolor="#eeeeee"
     borderopacity="1"
     inkscape:showpageshadow="0"
     inkscape:pageopacity="0"
     inkscape:pagecheckerboard="0"
     inkscape:deskcolor="#505050"
     inkscape:document-units="mm"
     showgrid="false"
     inkscape:zoom="0.62919003"
     inkscape:cx="184.36401"
     inkscape:cy="281.31406"
     inkscape:window-width="1908"
     inkscape:window-height="1014"
     inkscape:window-x="0"
     inkscape:window-y="0"
     inkscape:window-maximized="1"
     inkscape:current-layer="layer1" />
  <defs
     id="defs2" />
  <g
     inkscape:label="Layer 1"
     inkscape:groupmode="layer"
     id="layer1">
    <path
       style="font-size:155.165px;font-family:Righteous;-inkscape-font-specification:Righteous;text-align:center;text-anchor:middle;fill:#FF79C6;stroke-width:0.912368;fill-opacity:1"
       d="m 53.233967,20.002066 c -6.364189,10.303926 -10.000868,22.426191 -10.000868,35.457626 0,29.699549 19.092567,55.156308 45.76155,64.248008 -3.939736,0.90917 -7.879472,1.21222 -11.819208,1.21222 -29.396493,0 -53.03491,-23.638414 -53.03491,-53.337963 0,-20.607851 11.819209,-38.791248 29.093436,-47.579891 z M 72.023478,3.2892823e-4 C 37.171966,2.7278386 9.5938129,31.821275 9.5938129,67.581957 c 0,37.579023 30.3056631,67.884683 67.5816281,67.884683 14.546718,0 27.881209,-4.54585 38.791249,-12.12226 0.60611,-0.30306 1.21223,-0.90917 1.81834,-1.21223 1.51528,-1.21223 2.72751,-2.42445 4.24279,-3.63668 0.90917,-0.60611 1.51528,-1.21223 2.42445,-2.1214 1.51529,-1.51528 1.81834,-3.63668 0.90917,-5.75807 -0.90917,-1.81834 -3.03056,-2.72751 -5.15196,-2.42446 -1.21222,0.30306 -2.42445,0.30306 -3.33362,0.60612 -1.51528,0 -3.03057,0 -4.84891,0.30305 -0.30305,0 -0.60611,0 -0.90917,0 0,0 0,0 -0.30305,0 -29.09344,-0.30305 -53.034913,-23.941469 -53.034913,-53.337962 0,-16.668114 7.576415,-31.517889 19.395624,-41.215701 0.303057,-0.303057 0.606113,-0.606113 1.212226,-0.90917 1.212227,-0.90917 2.424453,-1.81834 3.63668,-2.727509 0.90917,-0.606114 1.81834,-1.212227 3.030566,-1.8183402 1.81834,-0.9091699 2.72751,-3.0305663 2.121397,-5.1519627 -0.303057,-2.1213964 -2.121397,-3.63667954 -4.242793,-3.93973617177 -1.212227,0 -2.121397,0 -3.333623,0 -0.606113,0 -1.515283,0 -2.424453,0 -0.90917,0 -1.81834,0 -3.030566,0 -0.606114,0 -1.212227,0 -2.121397,0 z"
       id="text236"
       aria-label="" />
  </g>
</svg>
